<?xml version="1.0" encoding="UTF-8"?>
<svg id="_Слой_2" data-name="Слой 2" xmlns="http://www.w3.org/2000/svg" viewBox="0 0 216.24 222.32">
  <defs>
    <style>
      .cls-1 {
        fill: #fff;
      }

      .cls-2 {
        fill: none;
        stroke: #fdebe8;
        stroke-linecap: round;
        stroke-linejoin: round;
        stroke-width: .94px;
      }

      .cls-3 {
        fill: #b4e2e0;
      }

      .cls-4 {
        fill: #76b38a;
      }

      .cls-5 {
        fill: #fdc0cc;
      }

      .cls-6 {
        fill: #fe9e5b;
      }

      .cls-7 {
        fill: #fdebe8;
      }

      .cls-8 {
        fill: #172c45;
      }
    </style>
  </defs>
  <g id="OBJECTS">
    <g>
      <path class="cls-1" d="M108.12,222.32c-14.68,0-28.91-2.89-42.31-8.6-20.64-8.79-38.43-24.19-50.1-43.38-2.86-4.67-5.39-9.64-7.51-14.76-.01-.03-.3-.75-.3-.75C3.02,142.84.37,130.08.04,116.98c-.03-.9-.04-1.83-.04-2.77,0-5.46.41-10.93,1.22-16.28.07-.48.15-.99.25-1.51,1.52-9.23,4.25-18.23,8.12-26.78-.49-1.3-1.02-2.6-1.58-3.97-1.52-3.71-3.08-7.54-3.89-11.81-.77-4.05-.52-7.43.77-10.34,1.83-4.13,5.89-6.9,10.1-6.9.53,0,1.06.04,1.58.13.3.05.59.11.87.18,1.59-2.84,3.55-5.14,5.87-6.87,1.99-1.48,4.06-2.36,6.16-2.6.4-.05.81-.07,1.21-.07,1.87,0,3.7.51,5.36,1.43-.29-2.47-.5-5.02-.39-7.67.17-4.01,1.19-7.14,3.1-9.58,1.13-1.45,2.49-2.45,4.03-2.99.83-.29,1.7-.44,2.59-.44s1.77.15,2.61.42c.28-.33.57-.65.87-.96l.25-.26c1.5-1.58,4.28-4.51,8.33-4.51.94,0,1.86.16,2.75.48,2.18.79,3.93,2.42,4.93,4.58.93,2.02,1.13,4.37.94,6.69.05-.02.1-.04.15-.06,3.35-4.59,7.15-9.79,13-12.92,1.38-.74,3.54-1.61,6.02-1.61s4.82.95,6.46,2.67c1.12,1.18,1.87,2.63,2.25,4.34,4.68-.62,9.44-.93,14.2-.93,4.16,0,8.28.23,12.26.7,39,4.39,72.6,29.7,87.66,66.06,5.27,12.72,8.03,26.2,8.19,40.07,0,.38,0,.84,0,1.3,0,9.52-1.24,18.95-3.67,28.02l-.36,1.32c-.07.25-.14.5-.22.76-.5,1.75-1.07,3.54-1.69,5.31-.21.63-.46,1.31-.71,2l-.27.72c-.17.48-.38.99-.58,1.5l-.13.34c-.72,1.8-1.47,3.55-2.25,5.23-.09.21-.19.42-.29.63-.06.14-.14.3-.23.47-.02.05-.05.09-.07.14-.52,1.1-1.07,2.19-1.63,3.27-.12.24-.55,1.03-.55,1.03-.45.84-.9,1.67-1.37,2.5-.18.32-.37.64-.55.96l-.15.25c-.44.76-.89,1.52-1.36,2.27-.26.41-.51.82-.77,1.23-.47.74-.95,1.47-1.43,2.2-.26.39-.53.79-.8,1.18-.51.74-1.03,1.47-1.56,2.19l-.15.21c-.21.29-.42.58-.64.87-.56.75-1.14,1.5-1.72,2.24,0,0-.57.73-.74.94-.64.8-1.3,1.58-1.96,2.36,0,0-.49.58-.63.74-.8.92-1.62,1.83-2.45,2.72-.09.11-.38.42-.38.42-.14.15-.28.3-.42.44-.49.52-.99,1.02-1.49,1.53,0,0-.53.54-.66.67-.77.76-1.55,1.52-2.33,2.25-.03.03-1.3,1.19-1.42,1.3-.07.06-.13.12-.2.17-1.19,1.07-2.37,2.09-3.52,3.04l-.42.35c-1.27,1.04-2.57,2.05-3.88,3.03-.17.13-.79.57-.79.57-1.06.77-2.16,1.55-3.26,2.29,0,0-.75.51-.99.67-1.4.93-2.71,1.75-3.97,2.51-.07.05-.15.09-.22.13-.15.09-1.09.64-1.12.66-.3.17-.59.34-.89.5l-1.3.72c-.83.45-1.66.9-2.5,1.33l-.73.38c-.94.47-1.88.93-2.83,1.38l-.46.22c-3.44,1.59-6.98,3.01-10.54,4.22-.04.01-.16.05-.2.07-1.07.36-2.19.72-3.32,1.06-.18.06-.8.23-.8.23-.91.27-1.83.53-2.77.78-.25.07-1.07.27-1.07.27-.85.21-1.69.42-2.54.62-.41.09-.83.19-1.25.28-.79.17-1.6.34-2.41.49-.45.09-.9.17-1.35.25-.79.14-1.58.27-2.37.39-.46.07-.94.15-1.42.21-.78.11-1.57.21-2.35.3l-.31.04c-.38.05-.76.09-1.15.13-.79.08-1.6.15-2.4.22l-.41.04c-.34.03-.68.06-1.02.08-.86.06-1.73.1-2.61.14l-.44.02c-.26.01-.53.03-.79.04-1.36.05-2.62.07-3.87.07Z"/>
      <g>
        <path class="cls-6" d="M210.09,114.2c0,9.18-1.2,18.09-3.48,26.55-.09.35-.19.69-.28,1.03-.08.29-.17.59-.26.89-.49,1.71-1.02,3.39-1.61,5.07-.22.65-.45,1.29-.69,1.93-.08.23-.17.45-.25.68-.22.59-.45,1.17-.68,1.75-.68,1.69-1.39,3.36-2.15,5-.08.18-.16.36-.24.54-.05.1-.09.21-.15.31-4.57,9.68-10.62,18.53-17.85,26.26-.16.17-.32.35-.49.52-1.39,1.47-2.82,2.89-4.29,4.26-.43.4-.86.81-1.31,1.19-5.03,4.57-10.52,8.63-16.38,12.13-.36.22-.72.42-1.08.64-15.09,8.74-32.61,13.73-51.29,13.73-14.23,0-27.79-2.9-40.1-8.15-19.81-8.43-36.41-22.91-47.49-41.12-2.73-4.46-5.1-9.13-7.12-14-.08-.22-.17-.42-.25-.64-4.53-11.14-7.15-23.25-7.47-35.94-.03-.87-.04-1.75-.04-2.63,0-5.25.39-10.41,1.16-15.43.07-.46.14-.92.23-1.38,1.59-9.67,4.54-18.87,8.64-27.43,1.3-2.72,2.72-5.37,4.25-7.94.23-.4.48-.81.72-1.2,4.61-7.54,10.16-14.43,16.5-20.51,1.75-1.69,3.55-3.31,5.42-4.86,1.68-1.4,3.41-2.75,5.19-4.04.29-.23.58-.43.88-.65,2.6-1.86,5.3-3.6,8.07-5.21,4.19-2.44,8.56-4.59,13.1-6.4,5.82-2.36,11.89-4.18,18.18-5.43,6.51-1.31,13.24-1.98,20.13-1.98,3.93,0,7.8.22,11.61.66,37.66,4.24,69.13,28.89,83.1,62.61,4.86,11.72,7.6,24.54,7.76,37.98,0,.4,0,.82,0,1.23Z"/>
        <g>
          <g>
            <path class="cls-4" d="M66.81,144.58c-.04-.21-.08-.42-.12-.63-.11.05-.23.08-.35.11-2.52.73-5.24.52-7.8-.09-4.32-1.02-8.44-3.13-11.48-6.36-3.05-3.24-4.93-7.64-4.75-12.08.08-1.65.43-3.32,1.28-4.74,1.83-3.02,5.62-4.35,9.16-4.32,1.8,0,3.47.31,5.01.86-3.52-9.04-6.56-18.1-6.19-27.65,0-.23.02-.46.03-.69v-.17c-.08.07-.17.12-.25.19-8.3,5.86-17.83,9.69-26.87,14.33-7.01,3.59-13.93,7.84-19.31,13.51.32,12.69,2.94,24.8,7.47,35.94.08.22.17.42.25.64,2.02,4.87,4.4,9.54,7.12,14,.48-.86,1.12-1.64,1.91-2.27,2.86-2.26,7.2-2.04,10.2.02,3.01,2.06,4.73,5.64,5.15,9.26.07.6.1,1.22.08,1.82,5.77-1.17,11.43-2.82,16.79-5.27,3.34-1.53,6.61-3.4,8.97-6.2,4.55-5.4,4.89-13.23,3.69-20.19ZM10.48,127.2c-1-.49-1.81-1.37-2.04-2.46-.63-3.07,3.24-6.41,5.8-7.39,2.13-.83,4.62-.38,6.41,1.01,5.78,4.45-2.58,9.28-6.96,9.42-1.1.04-2.23-.08-3.21-.57Z"/>
            <path class="cls-8" d="M51.83,89.04c-.07.21-.15.41-.25.62-.52,1.05-1.49,2.02-2.35,2.9-.39.38-.74.74-1.04,1.09-1.66,1.91-3.02,3.49-4.28,4.97-3.23,3.83-5.84,7.07-8.18,10.22-8.24,11.05-13.93,23.31-17.96,32.76-1.66,3.9-3.29,7.9-4.87,11.81-.08-.22-.17-.42-.25-.64,1.53-3.76,3.09-7.6,4.69-11.36,4.05-9.47,9.75-21.76,18.02-32.85,2.35-3.15,4.95-6.41,8.2-10.25,1.26-1.49,2.61-3.06,4.28-4.97.31-.36.68-.72,1.06-1.12.98-.98,2.08-2.1,2.46-3.23,0-.03.02-.06.03-.08.04-.13.17-.2.29-.16s.2.17.16.29Z"/>
          </g>
          <g>
            <path class="cls-4" d="M60.65,28.31c8.33-5.67,11.8-16.97,20.68-21.72,1.82-.97,4.32-1.52,5.74-.02.79.83.98,2.05.99,3.19.01,1.97-.43,3.95-1.27,5.73,2.73-.23,5.71.95,7.74,2.78,1.21,1.09,2.19,2.69,1.84,4.29-.45,2.03-2.74,3-4.78,3.42-5,1.02-10.17.57-15.27.63-5.19.06-10.59.6-15.66,1.7Z"/>
            <path class="cls-8" d="M83,16.15c-7.24,2.9-14.22,6.85-20.93,11.87-6.83,5.08-13.38,11.25-19.62,18.48-.16.18-.31.35-.45.53-1.08,1.25-2.14,2.54-3.2,3.85-.54.67-1.07,1.35-1.61,2.04-2.49,3.21-4.93,6.6-7.3,10.16-2.76,4.15-5.43,8.47-8.02,12.65-1.95,3.15-3.91,6.34-5.95,9.49-.37.56-.72,1.13-1.09,1.68-2.68,4.07-5.48,8.06-8.54,11.85.07-.46.14-.92.23-1.38,3.58-4.57,6.84-9.42,9.96-14.32.14-.24.29-.47.45-.71l.7-1.13c.52-.83,1.03-1.65,1.54-2.48.7-1.13,1.4-2.26,2.1-3.37,2.58-4.19,5.26-8.53,8.04-12.67,4.02-6.03,8.22-11.56,12.56-16.59.55-.65,1.11-1.29,1.68-1.92,6.18-6.93,12.66-12.84,19.42-17.72,6.35-4.59,12.95-8.25,19.77-10.98.19-.07.39.02.46.2.08.19,0,.39-.2.46Z"/>
            <path class="cls-4" d="M36.95,60.45c1.76-2.3,3.63-4.56,6.01-6.2,1.24-.86,2.65-1.55,4.15-1.71,1.5-.16,3.12.28,4.15,1.38,1.15,1.23,1.4,3.04,1.53,4.72,2.86-.76,5.82-1.52,8.74-1.06,2.92.46,5.81,2.5,6.3,5.41.46,2.76-1.37,5.5-3.75,6.99-2.38,1.48-5.22,1.98-7.98,2.48-7.17,1.29-14.31,2.76-21.4,4.42-1.28.3-9.35,2.81-9.71,1.89-.31-.81,1.86-3.39,2.29-4.09.96-1.54,1.93-3.08,2.92-4.6,2.13-3.28,4.35-6.52,6.73-9.63Z"/>
            <path class="cls-8" d="M14.81,86.92c-.1,0-.21-.05-.28-.13-.12-.15-.1-.37.06-.5,11.59-9.21,23.93-17.71,36.67-25.26.17-.1.38-.04.48.12.1.17.04.38-.12.48-12.71,7.53-25.02,16.01-36.59,25.2-.06.05-.14.08-.22.08Z"/>
            <g>
              <path class="cls-4" d="M14.7,68.61c-1.88-5.27-4.51-10.31-5.56-15.8-.44-2.33-.57-4.83.39-7,.96-2.17,3.27-3.88,5.61-3.49,1.77.29,3.16,1.64,4.42,2.93,1.21-4.08,3.18-8.11,6.59-10.65,1.02-.76,2.18-1.38,3.44-1.52,2.84-.33,5.5,1.91,6.47,4.59.97,2.68.59,5.67-.14,8.43-2.17,8.3-7.15,15.52-11.55,22.89-1.36,2.28-2.67,4.59-3.93,6.93-.99,1.84-1.96,5.19-3.48,6.54-.92-1.42-.2-4.28-.37-5.94-.28-2.7-.99-5.34-1.9-7.9Z"/>
              <path class="cls-8" d="M16.81,83.4s-.06,0-.09-.01c-.19-.05-.3-.24-.25-.43,2.7-10.23,3.55-20.76,2.52-31.29-.02-.19.12-.37.32-.39.2-.02.37.12.39.32,1.04,10.62.19,21.23-2.54,31.54-.04.16-.18.26-.34.26Z"/>
            </g>
            <g>
              <path class="cls-4" d="M41.93,34.41c-.5-4.33-1.35-8.66-1.17-13.01.1-2.24.52-4.58,1.9-6.34.39-.49.86-.94,1.45-1.15,1.07-.37,2.28.15,3.05.99.76.84,1.16,1.93,1.55,2.99-.25-.68,1.06-2.73,1.4-3.32.63-1.11,1.4-2.14,2.29-3.06,1.26-1.31,3.27-3.64,5.34-2.89,4.07,1.48,1.5,9.76.49,12.44-3.49,9.23-10.78,17.09-16.44,25.04.74-3.11.41-3.8.47-5.4.08-2.1-.09-4.21-.33-6.29Z"/>
              <path class="cls-8" d="M41.97,47.03c-.05,0-.11-.01-.16-.04-.17-.09-.24-.3-.16-.47,4.16-8.24,6.72-17.47,7.42-26.67.01-.19.19-.34.38-.32.19.01.34.18.32.38-.71,9.3-3.3,18.61-7.5,26.94-.06.12-.19.19-.32.19Z"/>
            </g>
            <g>
              <path class="cls-4" d="M71.43,32.73c1.02-.24,2.07-.44,3.11-.28,1.04.16,2.06.72,2.53,1.66.44.88.31,1.96-.09,2.86-.41.9-1.07,1.66-1.72,2.4,2.26-.23,4.56.05,6.7.81,1.78.63,3.55,1.72,4.21,3.48.25.67.31,1.47-.08,2.08-.56.87-1.77,1-2.81,1.03-8.06.22-16.08-.97-24.13-1.5-1.59-.1-8.18-.51-7.13-1.75,2.03-2.4,5.75-4.63,8.42-6.22,3.42-2.04,7.11-3.65,10.99-4.57Z"/>
              <path class="cls-8" d="M37.13,52.94c-.11,0-.21-.05-.28-.14-.12-.15-.09-.38.06-.49,5.61-4.37,11.06-7.47,16.65-9.48,6.14-2.21,12.76-3.52,18.6-4.68.19-.04.38.09.41.28.04.19-.09.38-.28.41-5.82,1.15-12.41,2.46-18.49,4.65-5.52,1.99-10.9,5.06-16.45,9.38-.06.05-.14.07-.22.07Z"/>
            </g>
          </g>
        </g>
        <g>
          <path class="cls-5" d="M194.44,147.58c-7.86-9.52-21.08-14.54-33.38-13.39,3.7-7.9,7.32-15.9,9.49-24.35,2.18-8.45,2.88-17.45.71-25.9-2.27-8.88-7.59-16.76-14.06-23.26-6.47-6.5-14.34-12.21-22.26-16.84-11.18-6.52-25.15-8.03-37.47-4.02-11.51,3.74-21.18,11.94-28.53,21.55-5.92,7.76-10.48,16.44-14.6,25.31-.99,2.12-1.96,4.27-2.9,6.41-2.53,5.69-5.02,11.58-6.85,17.53-2.74,8.89,2.26,18.24,7.75,25.76,4.51,6.18,9.48,12.02,14.87,17.46,1.57,1.6,4.03,3.24,5.83,1.91,1.17-.86,1.3-2.54,1.25-3.99-.32-9.79-4.12-19.7-1.46-29.12.94-3.35,2.66-6.42,4.58-9.32,1.78-2.7,3.72-5.25,5.81-7.69,8.61-10.1,19.5-18.25,30.22-26.21,2.34-1.74,4.75-3.52,7.55-4.34,7.32-2.15,15.4,3.35,17.8,10.59,2.41,7.25.11,15.39-4.15,21.72-4.26,6.34-10.3,11.23-16.19,16.1-18.4,15.21-36.86,31.97-45.64,54.17-3.85,9.78-5.68,20.34-5.32,30.84,12.31,5.25,25.87,8.15,40.1,8.15,41.08,0,76.51-24.16,92.84-59.04-1.49-3.63-3.51-7.03-6.01-10.06ZM126.25,171.11c-.59,3.38-.71,6.82-.83,10.26-.15,4.84-.3,9.69-.45,14.54-.09,2.77-.34,5.9-2.47,7.69-2.01,1.69-5.16,1.47-7.36.02-2.2-1.45-3.56-3.87-4.43-6.36-2.48-7.16-1.24-15.35,2.62-21.87,3.59-6.05,9.63-11.31,16.22-13.82-.92,3.14-2.7,6.09-3.31,9.55Z"/>
          <g>
            <path class="cls-7" d="M72.84,122.66c-.78,2.76-1.01,5.56-.92,8.39.19,6.82,2.15,13.81,2.38,20.73.05,1.45-.08,3.12-1.25,3.99-1.8,1.33-4.26-.31-5.83-1.91-5.39-5.43-10.36-11.28-14.87-17.46-1.22-1.68-2.43-3.46-3.52-5.29-3.82-6.39-6.35-13.56-4.22-20.47,1.83-5.95,4.32-11.84,6.85-17.53.95-2.14,1.92-4.29,2.9-6.41,6.71.13,13.44-1.35,19.46-4.32-.33,7.19,1.27,14.26,6.06,19.65,1.09,1.22,2.35,2.33,3.35,3.63-2.09,2.44-4.03,4.99-5.81,7.69-1.92,2.9-3.64,5.98-4.58,9.32Z"/>
            <circle class="cls-8" cx="77.73" cy="76.88" r="4.44"/>
            <path class="cls-8" d="M74.29,151.78c-.23-6.92-2.19-13.9-2.38-20.73-2.8.11-5.32,2.09-8.13,2.69-1.42.3-2.9.22-4.28-.19-1.71-4.82-1.7-10.17-.49-15.14,1.24-5.09,3.67-9.83,6.57-14.19-4.32,5.46-7.28,11.71-8.86,18.48-.7,2.98-1.11,6.12-.38,9.1,0,.02.01.03.02.05-1.15-1.04-2.14-2.38-3.65-2.79-2.04-.54-3.21.5-3.88,2.05,1.1,1.83,2.3,3.61,3.52,5.29,4.51,6.18,9.48,12.02,14.87,17.46,1.57,1.6,4.03,3.24,5.83,1.91,1.17-.86,1.3-2.54,1.25-3.99Z"/>
          </g>
          <g>
            <path class="cls-8" d="M200.69,157.11c-.08.18-.16.36-.24.54-.05.1-.09.21-.15.31-7.68-17.16-24.92-26.28-42.21-22.21-18.35,4.32-30.38,20.46-32.17,43.18-.25,3.22-.22,6.48-.18,9.63,0,1.47.03,2.93.02,4.41v.66c0,3.34-.02,8.37-3.08,10.28-.06.04-.12.05-.19.05-.11,0-.23-.06-.3-.16-.1-.17-.05-.39.11-.49,2.74-1.71,2.74-6.5,2.75-9.68v-.66c0-1.48,0-2.94-.02-4.41-.04-3.16-.08-6.43.18-9.68,1.81-23.04,14.04-39.42,32.71-43.81,17.44-4.11,34.82,4.93,42.76,22.05Z"/>
            <path class="cls-8" d="M159.73,180.91c-1.02,0-2.08-.18-3.12-.55-2.57-.9-4.92-2.86-6.61-5.5-1.2-1.87-2.1-3.94-2.74-6.3-.62,2.39-1.77,4.41-3.33,5.79-2.28,2.02-5.47,2.63-7.95,1.5-1.59-.72-2.93-2.16-3.78-4.03-.83-1.84-1.07-3.83-1.2-5.35-.02-.19.13-.36.32-.38.19,0,.36.13.38.32.12,1.47.35,3.38,1.14,5.12.77,1.72,1.99,3.03,3.43,3.68,2.23,1.01,5.11.45,7.19-1.39,1.77-1.57,2.98-4.03,3.42-6.95.03-.17.17-.29.34-.3.19,0,.32.11.36.28.62,2.93,1.61,5.42,3.02,7.62,1.61,2.51,3.83,4.37,6.25,5.22,1.87.66,3.77.68,5.36.07,2.18-.84,3.98-3.01,4.79-5.8.75-2.57.69-5.31.64-7.96,0-.16.1-.3.26-.35.16-.04.32.02.4.16,1.52,2.64,4.69,4.25,7.72,3.9,3.03-.34,5.76-2.62,6.64-5.54.06-.19.25-.29.44-.23.19.06.29.25.23.44-.96,3.18-3.94,5.66-7.24,6.03-2.9.33-5.91-.98-7.73-3.25.03,2.33-.02,4.7-.69,6.99-.88,3-2.83,5.34-5.22,6.26-.84.32-1.76.49-2.72.49Z"/>
            <g>
              <path class="cls-8" d="M159.98,202.31c-.36.22-.72.42-1.08.64-4.71-.49-9.13-3.3-11.45-7.47-.92,1.49-2.46,2.66-4.31,3.24-2.25.71-4.63.5-6.53-.58-3.7-2.1-5.44-7.05-3.94-11.27.07-.18.26-.27.45-.21.18.07.28.26.22.45-1.37,3.84.25,8.51,3.62,10.42,1.71.97,3.94,1.17,5.98.53,1.91-.6,3.44-1.87,4.21-3.48.06-.12.18-.2.31-.2h0c.13,0,.25.08.31.2,2.22,4.51,7.19,7.56,12.21,7.74Z"/>
              <path class="cls-8" d="M182.45,184.21c-.16.17-.32.35-.49.52-.78-.55-1.51-1.19-2.19-1.92-.65,2.32-1.33,4.36-2.1,6.18-.43.4-.86.81-1.31,1.19,1.09-2.29,2.03-4.96,2.9-8.18.04-.13.14-.23.26-.25.13-.03.26.02.35.11.77.91,1.64,1.69,2.58,2.35Z"/>
            </g>
          </g>
        </g>
        <g>
          <g>
            <path class="cls-4" d="M171.56,102.1c-8.33-5.67-11.8-16.97-20.68-21.72-1.82-.97-4.32-1.52-5.74-.02-.79.83-.98,2.05-.99,3.19-.01,1.97.43,3.95,1.27,5.73-2.73-.23-5.71.95-7.74,2.78-1.21,1.09-2.19,2.69-1.84,4.29.45,2.03,2.74,3,4.78,3.42,5,1.02,10.17.57,15.27.63,5.19.06,10.59.6,15.66,1.7Z"/>
            <path class="cls-8" d="M202.9,136.5c1.17,1.74,2.31,3.52,3.43,5.29-.08.29-.17.59-.26.89-1.23-1.96-2.48-3.89-3.75-5.8-2.38-3.56-4.82-6.95-7.31-10.16-.54-.7-1.07-1.38-1.61-2.06-1.06-1.31-2.11-2.58-3.19-3.84-.15-.17-.29-.35-.45-.52-6.23-7.23-12.77-13.4-19.61-18.49-6.72-5.02-13.7-8.98-20.94-11.87-.18-.08-.27-.28-.2-.46.08-.18.28-.26.46-.2,6.8,2.72,13.38,6.37,19.72,10.94,6.77,4.88,13.26,10.8,19.47,17.75.56.63,1.13,1.27,1.69,1.93,4.33,5.02,8.52,10.56,12.55,16.59Z"/>
            <path class="cls-4" d="M204.46,147.75c-.22.65-.45,1.29-.69,1.93-.08.23-.17.45-.25.68-.22.59-.45,1.17-.68,1.75-2.27-.55-4.69-1.28-5.34-1.43-7.1-1.66-14.23-3.13-21.4-4.42-2.75-.5-5.6-1-7.98-2.48-2.38-1.48-4.21-4.22-3.75-6.98.49-2.91,3.38-4.95,6.3-5.41,2.92-.46,5.88.3,8.74,1.06.13-1.68.39-3.49,1.53-4.72,1.03-1.11,2.65-1.54,4.15-1.38s2.9.85,4.15,1.71c2.38,1.65,4.26,3.9,6.02,6.2,2.38,3.11,4.6,6.34,6.73,9.63.84,1.29,1.66,2.58,2.47,3.87Z"/>
            <path class="cls-8" d="M203.78,149.68c-.08.23-.17.45-.25.68-7.44-5.29-15.11-10.28-22.93-14.92-.17-.1-.23-.32-.12-.49.09-.16.31-.22.48-.12,7.78,4.62,15.42,9.58,22.82,14.85Z"/>
            <path class="cls-4" d="M210.08,112.97c0,.4,0,.82,0,1.23,0,9.18-1.2,18.09-3.48,26.55-4.07-6.68-8.37-13.34-10.34-20.88-.72-2.75-1.11-5.74-.13-8.42.97-2.69,3.64-4.93,6.47-4.6,1.26.14,2.43.76,3.44,1.52,1.65,1.23,2.97,2.82,4.03,4.59Z"/>
            <g>
              <path class="cls-4" d="M190.28,108.21c.5-4.33,1.35-8.66,1.17-13.01-.1-2.24-.52-4.58-1.9-6.34-.39-.49-.86-.94-1.45-1.15-1.07-.37-2.28.15-3.05.99-.76.84-1.16,1.93-1.55,2.99.25-.68-1.06-2.73-1.4-3.32-.63-1.11-1.4-2.14-2.29-3.06-1.26-1.31-3.27-3.64-5.34-2.89-4.07,1.48-1.5,9.76-.49,12.44,3.49,9.23,10.78,17.09,16.44,25.04-.74-3.11-.41-3.8-.47-5.4-.08-2.1.09-4.21.33-6.29Z"/>
              <path class="cls-8" d="M190.23,120.83c-.13,0-.25-.07-.32-.19-4.2-8.33-6.79-17.64-7.5-26.94-.01-.19.13-.36.32-.38.2,0,.36.13.38.32.7,9.21,3.27,18.43,7.42,26.67.09.17.02.39-.16.47-.05.03-.11.04-.16.04Z"/>
            </g>
            <g>
              <path class="cls-4" d="M160.78,106.52c-1.02-.24-2.07-.44-3.11-.28-1.04.16-2.06.72-2.53,1.66-.44.89-.31,1.96.09,2.86.41.9,1.07,1.66,1.72,2.4-2.26-.23-4.56.05-6.7.81-1.78.63-3.55,1.72-4.21,3.48-.25.67-.31,1.47.08,2.08.56.87,1.77,1,2.81,1.03,8.06.22,16.08-.97,24.13-1.5,1.59-.1,8.18-.51,7.13-1.75-2.03-2.4-5.75-4.63-8.42-6.22-3.42-2.04-7.11-3.65-10.99-4.57Z"/>
              <path class="cls-8" d="M195.08,126.73c-.08,0-.15-.02-.22-.07-5.55-4.32-10.94-7.39-16.45-9.38-6.09-2.2-12.68-3.5-18.49-4.65-.19-.04-.32-.22-.28-.41.04-.19.23-.31.41-.28,5.84,1.16,12.45,2.47,18.6,4.68,5.59,2.01,11.03,5.12,16.65,9.48.15.12.18.34.06.49-.07.09-.17.14-.28.14Z"/>
            </g>
          </g>
          <path class="cls-7" d="M202.32,75c-2.91,1.24-6.08,1.8-9.25,1.47-9.92-1.05-17.47-10.62-18.51-20.53-2.06,4.49-5.29,8.44-9.29,11.35-2.99,2.18-6.58,3.81-10.28,3.59-5.2-.32-9.7-4.42-11.43-9.32-1.74-4.92-1.04-10.43.89-15.27,1.94-4.84,5.04-9.12,8.19-13.26-7.91.21-16.09.36-23.39-2.71-4.68-1.97-9.05-5.61-10.19-10.56-.62-2.68-.51-5.14.15-7.36,37.66,4.24,69.13,28.89,83.1,62.61Z"/>
        </g>
        <g>
          <g>
            <path class="cls-8" d="M117.16,102.23s.05.09.08.13c.07.11.13.22.2.34,1.39,2.48,1.29,5.54,1.15,8.39-.11,2.05-.63,3.68-.76,5.71,0,.08-.01.16-.02.25-.17-.23-.36-.43-.58-.6-.8-.65-1.89-.94-2.94-1.05-1.32-.14-2.67-.04-3.97-.32-.97-.21-1.87-.61-2.68-1.18-.14-.09-.28-.19-.41-.3-1.18-.91-2.15-2.14-2.84-3.47-.92-1.76-1.41-3.7-1.73-5.68-.02-.13-.04-.25-.06-.37-.08-.54-.15-1.08-.22-1.62-.3-2.53-.48-5.08-.55-7.63t0-.01c0-.08,0-.16,0-.24.13.1.27.18.4.28,2.31,1.48,5.21,1.97,7.84,2.82.77.25,1.56.54,2.31.88.12.05.23.1.34.16,1.77.82,3.38,1.92,4.43,3.52Z"/>
            <g>
              <path class="cls-3" d="M102.24,94.85c1.18,2.86,2.71,5.54,4.55,7.97,1.13,1.5,2.45,2.89,3.73,4.24.16.17.34.35.5.53h0c.1.11.19.21.3.31.7.75,1.39,1.5,2.05,2.28.37.44.72.88,1.06,1.31.08.1.16.2.23.31,1.29,1.69,2.34,3.34,3.18,4.99,0,.08-.01.16-.02.25-.17-.23-.36-.43-.58-.6-.77-1.45-1.71-2.89-2.83-4.36-.06-.09-.14-.19-.22-.28-.35-.45-.72-.92-1.11-1.38-.64-.77-1.32-1.51-2-2.24-.06-.06-.11-.11-.15-.16-.23-.24-.45-.47-.67-.71-.78-.81-1.57-1.66-2.33-2.53-.11-.12-.21-.23-.31-.36-.39-.45-.76-.91-1.12-1.38-1.9-2.5-3.46-5.26-4.66-8.21t0-.01c0-.08,0-.16,0-.24.13.1.27.18.4.28Z"/>
              <path class="cls-3" d="M108.16,104.6s-.01.08-.04.12c-.03.04-.08.06-.14.06-.02,0-.05,0-.06,0-1.76.02-3.52-.09-5.25-.33-.02-.13-.04-.25-.06-.37,1.65.23,3.33.35,5,.34.12,0,.25,0,.37,0,.1,0,.18.08.18.18Z"/>
              <path class="cls-3" d="M112.73,98.71c-.25,3.09-.72,6.18-1.42,9.19-.01.05-.02.09-.03.14,0,.03-.02.05-.03.07-.04.04-.1.07-.16.06,0,0,0,0-.02,0-.08-.02-.14-.09-.14-.16,0-.02,0-.04,0-.06.03-.12.06-.24.09-.37h0c.68-2.98,1.15-6.01,1.38-9.04.12.05.23.1.34.16Z"/>
              <path class="cls-3" d="M117.16,102.23s.05.09.08.13c.07.11.13.22.2.34-.55,3.04-1.43,5.99-2.65,8.83-.04.09-.08.19-.14.27-.02.04-.04.08-.08.11l-.05.07s-.07.07-.12.09c-.14.1-.3.16-.42.2-2.06.72-4.18,1.26-6.34,1.61-.14-.09-.28-.19-.41-.3,2.25-.35,4.48-.9,6.63-1.65.13-.04.24-.08.32-.14.03-.02.06-.04.08-.06.06-.06.11-.15.15-.24.02-.03.03-.07.05-.1,1.25-2.94,2.16-6.02,2.7-9.16Z"/>
            </g>
          </g>
          <g>
            <path class="cls-8" d="M55.58,192.08c-.05-.01-.1-.03-.15-.05-.12-.04-.25-.08-.37-.13-2.67-.98-4.59-3.36-6.34-5.62-1.26-1.63-1.92-3.21-3.14-4.83-.04-.06-.1-.13-.15-.2.27.07.55.09.83.08,1.03-.03,2.05-.51,2.92-1.11,1.09-.76,2.06-1.71,3.22-2.35.87-.47,1.82-.75,2.8-.85.16-.03.34-.04.5-.04,1.49-.08,3.02.23,4.41.78,1.85.74,3.48,1.89,5.01,3.19.1.08.19.16.29.24.42.36.82.72,1.22,1.08,1.88,1.73,3.67,3.54,5.39,5.43t0,0c.05.06.1.12.16.18-.16.01-.32.04-.49.05-2.72.38-5.24,1.9-7.79,2.96-.75.31-1.54.6-2.33.84-.12.04-.24.08-.36.1-1.87.53-3.81.74-5.65.21Z"/>
            <g>
              <path class="cls-3" d="M71.71,187.96c-2.76-1.41-5.66-2.45-8.64-3.09-1.84-.4-3.74-.6-5.59-.79-.24-.02-.48-.05-.72-.08h0c-.14-.01-.28-.03-.42-.04-1.01-.11-2.03-.23-3.04-.4-.57-.09-1.12-.2-1.66-.31-.13-.03-.25-.05-.38-.08-2.08-.44-3.95-1.01-5.66-1.71-.04-.06-.1-.13-.15-.2.27.07.55.09.83.08,1.53.6,3.18,1.08,4.99,1.46.11.03.22.05.35.07.56.12,1.15.23,1.74.33.99.16,1.99.29,2.97.4.08,0,.15.01.22.02.33.04.65.06.97.1,1.12.11,2.27.24,3.42.4.16.02.31.04.47.07.59.09,1.17.2,1.75.32,3.07.66,6.05,1.74,8.88,3.2t0,0c.05.06.1.12.16.18-.16.01-.32.04-.49.05Z"/>
              <path class="cls-3" d="M60.87,184.42s-.04-.07-.05-.11c0-.05.02-.1.06-.14.01-.01.04-.03.05-.04,1.32-1.16,2.73-2.22,4.2-3.17.1.08.19.16.29.24-1.41.9-2.75,1.91-4.02,3-.1.07-.19.15-.28.24-.08.07-.19.05-.25-.02Z"/>
              <path class="cls-3" d="M61.24,191.87c-1.82-2.5-3.47-5.16-4.9-7.9-.02-.04-.04-.09-.07-.13-.01-.02-.02-.05-.02-.08,0-.06.03-.12.08-.15,0,0,0,0,.01,0,.08-.04.16-.02.21.03.02.01.03.03.04.04.06.11.11.22.17.33h0c1.42,2.7,3.04,5.3,4.84,7.76-.12.04-.24.08-.36.1Z"/>
              <path class="cls-3" d="M55.58,192.08c-.05-.01-.1-.03-.15-.05-.12-.04-.25-.08-.37-.13-1.56-2.66-2.81-5.48-3.74-8.43-.03-.09-.06-.19-.07-.3,0-.04-.02-.09-.02-.14v-.09c0-.05.01-.1.03-.14.04-.17.12-.31.19-.43,1.1-1.89,2.35-3.68,3.76-5.35.16-.03.34-.04.5-.04-1.48,1.73-2.81,3.6-3.95,5.57-.07.12-.12.22-.15.32,0,.04-.02.06-.02.1,0,.09.01.19.04.28,0,.04.02.07.03.11.97,3.05,2.28,5.97,3.92,8.71Z"/>
            </g>
          </g>
          <g>
            <path class="cls-8" d="M158.72,171.97c.05,0,.11,0,.16,0,.13,0,.26,0,.39.01,2.83.13,5.36,1.82,7.7,3.44,1.68,1.17,2.78,2.47,4.42,3.65.06.05.13.1.2.14-.28.02-.55.08-.82.17-.97.34-1.79,1.1-2.44,1.93-.81,1.05-1.44,2.24-2.36,3.19-.69.71-1.5,1.26-2.41,1.64-.15.07-.31.13-.46.19-1.39.52-2.94.69-4.43.57-1.97-.15-3.87-.76-5.71-1.53-.12-.05-.23-.1-.34-.15-.5-.21-.99-.44-1.48-.67-2.3-1.08-4.55-2.27-6.74-3.55t0,0c-.07-.04-.13-.08-.21-.13.15-.06.3-.13.45-.2,2.47-1.18,4.41-3.36,6.51-5.13.62-.52,1.28-1.03,1.96-1.49.1-.07.21-.15.31-.2,1.62-1.06,3.4-1.84,5.31-1.89Z"/>
            <g>
              <path class="cls-3" d="M144.62,180.69c3.04.52,6.11.63,9.13.36,1.87-.17,3.73-.55,5.55-.92.23-.05.47-.1.71-.14h0c.14-.03.28-.06.41-.09,1-.19,2-.39,3.01-.53.57-.08,1.12-.15,1.67-.2.13-.01.25-.03.39-.03,2.1-.2,4.06-.22,5.89-.06.06.05.13.1.2.14-.28.02-.55.08-.82.17-1.63-.11-3.34-.07-5.18.1-.11,0-.23.02-.35.04-.57.06-1.16.13-1.75.21-.99.14-1.97.31-2.94.51-.08.02-.15.03-.22.04-.32.06-.63.13-.95.19-1.1.23-2.23.45-3.37.64-.16.03-.31.05-.46.07-.59.09-1.17.16-1.76.22-3.11.29-6.27.15-9.39-.39t0,0c-.07-.04-.13-.08-.21-.13.15-.06.3-.13.45-.2Z"/>
              <path class="cls-3" d="M155.98,180.82s.06.05.08.09c.02.05.01.1-.02.15,0,.02-.02.04-.04.05-.91,1.49-1.93,2.92-3.05,4.27-.12-.05-.23-.1-.34-.15,1.07-1.27,2.05-2.63,2.93-4.05.07-.1.13-.2.2-.31.05-.09.16-.11.24-.06Z"/>
              <path class="cls-3" d="M153.41,173.86c2.48,1.84,4.84,3.86,7.02,6.04.03.03.07.07.1.1.02.02.04.04.05.07.02.05,0,.12-.03.17,0,0,0,0-.01.01-.06.06-.15.07-.21.03-.02,0-.04-.02-.05-.03-.09-.09-.17-.18-.26-.27h0c-2.15-2.14-4.47-4.13-6.91-5.92.1-.07.21-.15.31-.2Z"/>
              <path class="cls-3" d="M158.72,171.97c.05,0,.11,0,.16,0,.13,0,.26,0,.39.01,2.28,2.06,4.31,4.37,6.07,6.89.06.08.12.16.16.26.02.04.04.08.06.12l.03.08s.02.1.01.15c.01.17-.02.33-.05.46-.48,2.12-1.14,4.2-1.98,6.2-.15.07-.31.13-.46.19.89-2.09,1.59-4.26,2.1-6.47.03-.13.05-.24.05-.35,0-.04,0-.07-.01-.1-.02-.08-.07-.17-.12-.25-.02-.03-.04-.06-.06-.09-1.83-2.61-3.95-4.99-6.32-7.11Z"/>
            </g>
          </g>
          <g>
            <path class="cls-8" d="M36.47,96.78s-.07.07-.1.11c-.08.09-.17.18-.25.26-1.89,1.88-4.67,2.58-7.28,3.18-1.88.43-3.48.36-5.35.76-.07.01-.15.03-.23.05.16-.21.29-.44.4-.68.38-.89.37-1.94.2-2.92-.21-1.23-.64-2.42-.72-3.67-.06-.93.08-1.84.38-2.72.04-.15.1-.3.16-.44.52-1.3,1.39-2.49,2.41-3.45,1.36-1.28,2.98-2.21,4.69-3,.11-.05.21-.1.32-.15.47-.21.94-.41,1.41-.61,2.21-.91,4.46-1.73,6.75-2.44t0,0c.07-.02.14-.04.22-.07-.06.14-.1.29-.15.44-.75,2.46-.45,5.21-.56,7.8-.03.76-.09,1.54-.2,2.31-.01.12-.03.24-.06.35-.29,1.8-.88,3.54-2.05,4.9Z"/>
            <g>
              <path class="cls-3" d="M39.33,81.43c-2.29,1.79-4.32,3.85-6.04,6.13-1.07,1.41-1.99,2.95-2.88,4.45-.11.19-.23.39-.35.58h0c-.07.12-.14.23-.2.35-.5.82-1,1.64-1.54,2.43-.31.45-.61.87-.92,1.29-.07.1-.14.19-.22.29-1.19,1.59-2.42,2.97-3.7,4.14-.07.01-.15.03-.23.05.16-.21.29-.44.4-.68,1.11-1.06,2.17-2.28,3.22-3.67.06-.08.13-.17.2-.27.32-.43.64-.89.97-1.35.53-.77,1.03-1.57,1.51-2.37.04-.07.07-.12.11-.18.16-.27.31-.53.47-.79.54-.91,1.1-1.84,1.69-2.75.08-.13.16-.25.24-.37.31-.47.63-.92.96-1.36,1.78-2.35,3.87-4.46,6.23-6.29t0,0c.07-.02.14-.04.22-.07-.06.14-.1.29-.15.44Z"/>
              <path class="cls-3" d="M32.04,89.26s-.08.01-.11,0c-.04-.02-.08-.06-.09-.11,0-.02-.01-.04-.01-.06-.46-1.58-.81-3.2-1.04-4.83.11-.05.21-.1.32-.15.21,1.55.53,3.1.96,4.6.02.11.06.22.09.33.03.09-.03.18-.11.21Z"/>
              <path class="cls-3" d="M38.52,91.89c-2.85.56-5.76.92-8.66,1.06-.04,0-.09,0-.14,0-.02,0-.05,0-.08-.01-.05-.02-.09-.07-.1-.13,0,0,0,0,0-.01,0-.08.05-.15.11-.17.02-.01.04-.01.05-.01.12,0,.23,0,.35-.02h0c2.86-.15,5.71-.5,8.51-1.06-.01.12-.03.24-.06.35Z"/>
              <path class="cls-3" d="M36.47,96.78s-.07.07-.1.11c-.08.09-.17.18-.25.26-2.88.28-5.78.23-8.65-.14-.09-.01-.19-.02-.28-.06-.04-.01-.08-.02-.12-.04l-.07-.03s-.08-.05-.11-.08c-.13-.1-.22-.23-.29-.33-1.17-1.68-2.2-3.46-3.07-5.31.04-.15.1-.3.16-.44.89,1.94,1.95,3.81,3.18,5.56.07.1.14.19.21.25.03.02.05.04.08.06.07.04.16.06.25.07.03,0,.07,0,.1.02,2.98.38,5.98.42,8.96.1Z"/>
            </g>
          </g>
        </g>
        <g>
          <line class="cls-2" x1="106.69" y1="147.84" x2="106.69" y2="163.2"/>
          <line class="cls-2" x1="114.37" y1="155.52" x2="99.01" y2="155.52"/>
          <line class="cls-2" x1="103.03" y1="151.48" x2="110.71" y2="160.18"/>
          <line class="cls-2" x1="102.52" y1="159.67" x2="111.22" y2="151.99"/>
        </g>
        <g>
          <g>
            <line class="cls-2" x1="104.97" y1="17.8" x2="104.97" y2="33.16"/>
            <line class="cls-2" x1="112.65" y1="25.48" x2="97.29" y2="25.48"/>
            <line class="cls-2" x1="101.31" y1="21.44" x2="108.99" y2="30.14"/>
            <line class="cls-2" x1="100.8" y1="29.63" x2="109.5" y2="21.95"/>
          </g>
          <g>
            <line class="cls-2" x1="196.29" y1="87.04" x2="196.29" y2="102.4"/>
            <line class="cls-2" x1="203.97" y1="94.72" x2="188.61" y2="94.72"/>
            <line class="cls-2" x1="192.63" y1="90.68" x2="200.31" y2="99.38"/>
            <line class="cls-2" x1="192.12" y1="98.87" x2="200.82" y2="91.19"/>
          </g>
          <g>
            <line class="cls-2" x1="31.49" y1="147.84" x2="31.49" y2="163.2"/>
            <line class="cls-2" x1="39.17" y1="155.52" x2="23.81" y2="155.52"/>
            <line class="cls-2" x1="27.83" y1="151.48" x2="35.51" y2="160.18"/>
            <line class="cls-2" x1="27.32" y1="159.67" x2="36.02" y2="151.99"/>
          </g>
        </g>
      </g>
    </g>
  </g>
</svg>